<svg xmlns="http://www.w3.org/2000/svg" version="1.1" xmlns:xlink="http://www.w3.org/1999/xlink" xmlns:svgjs="http://svgjs.com/svgjs" width="1458" height="596" preserveAspectRatio="none" viewBox="0 0 1458 596"><g mask="url(&quot;#SvgjsMask1143&quot;)" fill="none"><rect width="1458" height="596" x="0" y="0" fill="rgba(255, 183, 157, 1)"></rect><path d="M0,609.993C111.557,597.629,192.269,506.246,282.086,438.935C365.235,376.621,461.598,325.03,505.751,230.969C550.096,136.498,534.089,28.557,523.453,-75.261C512.4,-183.155,522.17,-309.776,442.782,-383.673C363.487,-457.484,235.191,-417.058,129.714,-441.767C32.02,-464.653,-58.821,-556.094,-153.684,-523.4C-248.889,-490.588,-274.567,-369.53,-327.839,-284.074C-372.443,-212.523,-409.458,-141.732,-440.482,-63.332C-480.99,39.035,-559.173,137.497,-537.362,245.405C-514.704,357.502,-419.992,442.052,-325.354,506.261C-229.211,571.492,-115.476,622.792,0,609.993" fill="#ffa584"></path><path d="M1458 1019.233C1540.185 1011.744 1624.173 1007.2080000000001 1694.0140000000001 963.245 1764.212 919.058 1811.363 848.5360000000001 1847.662 773.953 1884.665 697.923 1903.221 616.434 1903.9560000000001 531.881 1904.79 435.86400000000003 1921.175 321.222 1852.1770000000001 254.44400000000002 1782.666 187.17000000000002 1667.767 217.77999999999997 1571.347 209.976 1494.808 203.781 1418.92 190.397 1345.673 213.45 1273.311 236.22500000000002 1225.061 297.734 1161.404 338.998 1067.637 399.78 904.5 403.669 883.049 513.335 862.036 620.759 1019.117 677.111 1077.107 769.948 1124.951 846.542 1117.058 959.481 1192.622 1008.9359999999999 1268.225 1058.417 1368.017 1027.433 1458 1019.233" fill="#ffc9b6"></path></g><defs><mask id="SvgjsMask1143"><rect width="1458" height="596" fill="#ffffff"></rect></mask></defs></svg>