<svg xmlns="http://www.w3.org/2000/svg" version="1.1" xmlns:xlink="http://www.w3.org/1999/xlink" xmlns:svgjs="http://svgjs.com/svgjs" width="1458" height="686" preserveAspectRatio="none" viewBox="0 0 1458 686"><g mask="url(&quot;#SvgjsMask1323&quot;)" fill="none"><rect width="1458" height="686" x="0" y="0" fill="rgba(255, 183, 157, 1)"></rect><path d="M0,459.943C88.113,459.118,183.968,446.603,248.349,386.439C310.346,328.502,297.805,229.242,330.61,150.985C361.997,76.111,437.069,18.403,436.662,-62.783C436.241,-146.75,386.377,-223.819,328.427,-284.584C272.059,-343.69,195.979,-377.698,116.889,-398.088C39.733,-417.98,-41.796,-424.942,-117.304,-399.499C-191.261,-374.578,-258.016,-325.256,-298.056,-258.267C-335.274,-195.999,-313.837,-118.312,-327.906,-47.146C-343.037,29.39,-397.188,98.406,-383.764,175.259C-368.94,260.13,-320.552,339.787,-251.357,391.118C-180.146,443.944,-88.661,460.773,0,459.943" fill="#ffa584"></path><path d="M1458 1229.338C1556.812 1206.199 1603.692 1097.001 1677.099 1026.925 1734.6970000000001 971.941 1794.566 925.034 1842.987 861.818 1904.408 781.63 2018.877 707.164 1997.667 608.408 1976.002 507.529 1832.804 494.884 1750.748 432.332 1689.0140000000001 385.272 1644.704 321.256 1575.319 286.449 1494.82 246.06599999999997 1407.005 192.73399999999998 1320.079 216.28500000000003 1233.007 239.875 1197.949 341.538 1134.6689999999999 405.832 1065.975 475.626 948.039 513.762 932.18 610.398 916.349 706.859 1020.4300000000001 778.404 1058.768 868.323 1098.479 961.463 1086.171 1079.808 1161.271 1147.719 1238.932 1217.9450000000002 1356.054 1253.211 1458 1229.338" fill="#ffc9b6"></path></g><defs><mask id="SvgjsMask1323"><rect width="1458" height="686" fill="#ffffff"></rect></mask></defs></svg>